<svg width="30" height="19" viewBox="0 0 30 19" fill="none" xmlns="http://www.w3.org/2000/svg">
<path fill-rule="evenodd" clip-rule="evenodd" d="M0 3C0 1.61929 1.11929 0.5 2.5 0.5H27.5C28.8807 0.5 30 1.61929 30 3V3C30 4.38071 28.8807 5.5 27.5 5.5H2.5C1.11929 5.5 0 4.38071 0 3V3Z" fill="black"/>
<path fill-rule="evenodd" clip-rule="evenodd" d="M0 16C0 14.6193 1.11929 13.5 2.5 13.5H27.5C28.8807 13.5 30 14.6193 30 16V16C30 17.3807 28.8807 18.5 27.5 18.5H2.5C1.11929 18.5 0 17.3807 0 16V16Z" fill="black"/>
</svg>
